<?xml version="1.0" ?><!DOCTYPE svg  PUBLIC '-//W3C//DTD SVG 1.1//EN'  'http://www.w3.org/Graphics/SVG/1.1/DTD/svg11.dtd'><svg id="Layer_1" style="enable-background:new 0 0 74 74;" version="1.1" viewBox="0 0 74 74" xml:space="preserve" xmlns="http://www.w3.org/2000/svg" xmlns:xlink="http://www.w3.org/1999/xlink"><style type="text/css">
	.st0{fill:#7688A1;}
	.st1{fill:#FABB8E;}
	.st2{fill:#E69D6A;}
	.st3{fill:#594667;}
	.st4{fill:#E73A36;}
	.st5{fill:#CFE5E4;}
	.st6{fill:#FFFFFF;}
	.st7{fill:#EEF1F6;}
	.st8{fill:#8EDAFA;}
	.st9{fill:#FFF383;}
	.st10{fill:#70B7D6;}
	.st11{fill:#FFAEC3;}
	.st12{fill:#FF9DB2;}
	.st13{fill:#F18DA2;}
	.st14{fill:#FFDF97;}
	.st15{fill:#49375B;}
	.st16{fill:#452E1B;}
	.st17{fill:#FEF6B0;}
	.st18{fill:#FFCCA9;}
	.st19{fill:#FED766;}
	.st20{fill:#8A9DB2;}
	.st21{fill:#5D738C;}
	.st22{fill:#2C3E50;}
	.st23{fill:#EC685E;}
	.st24{fill:#54758C;}
	.st25{fill:#D12828;}
	.st26{fill:#69567C;}
	.st27{fill:#857399;}
	.st28{fill:#705D82;}
	.st29{fill:#EAA678;}
	.st30{fill:#D88D5B;}
	.st31{fill:#3597D3;}
	.st32{fill:#E27491;}
	.st33{fill:#E4F2F1;}
	.st34{fill:#FFE576;}
	.st35{fill:#FFB8CB;}
	.st36{fill:#C91F1F;}
	.st37{fill:#E0E2EE;}
	.st38{fill:#FEFEFE;}
	.st39{fill:#E5E5E5;}
	.st40{fill:#D3D3D3;}
	.st41{fill:#C2C3C4;}
	.st42{fill:none;}
	.st43{fill:#FFFBD7;}
	.st44{fill:#CCCCCC;}
	.st45{fill:#FFF5B0;}
	.st46{fill:#EDEFF4;}
	.st47{fill:#F0F2F7;}
	.st48{fill:#D3EBF7;}
</style><g><path class="st35" d="M67.2,30.1c-0.2-0.5-0.5-0.9-0.8-1.3L39.6,2.1c-1.5-1.5-3.8-1.5-5.3,0L7.6,28.8c-0.4,0.4-0.7,0.9-0.9,1.4   L37,60.3L67.2,30.1z"/><g><polygon class="st6" points="58.4,9 58.4,45.4 37,66.7 15.6,45.4 15.6,9   "/></g><g><g><path class="st10" d="M53.9,15.5H20.1c-0.4,0-0.7-0.3-0.7-0.7c0-0.4,0.3-0.7,0.7-0.7h33.9c0.4,0,0.7,0.3,0.7,0.7     C54.6,15.2,54.3,15.5,53.9,15.5z"/></g><g><path class="st10" d="M53.9,22.7H20.1c-0.4,0-0.7-0.3-0.7-0.7c0-0.4,0.3-0.7,0.7-0.7h33.9c0.4,0,0.7,0.3,0.7,0.7     C54.6,22.4,54.3,22.7,53.9,22.7z"/></g><g><path class="st10" d="M53.9,30H20.1c-0.4,0-0.7-0.3-0.7-0.7c0-0.4,0.3-0.7,0.7-0.7h33.9c0.4,0,0.7,0.3,0.7,0.7     C54.6,29.7,54.3,30,53.9,30z"/></g><g><path class="st10" d="M53.9,37.3H20.1c-0.4,0-0.7-0.3-0.7-0.7s0.3-0.7,0.7-0.7h33.9c0.4,0,0.7,0.3,0.7,0.7S54.3,37.3,53.9,37.3z"/></g><g><path class="st10" d="M48.3,44.6H25.6c-0.4,0-0.7-0.3-0.7-0.7s0.3-0.7,0.7-0.7h22.7c0.4,0,0.7,0.3,0.7,0.7S48.7,44.6,48.3,44.6z"/></g></g><path class="st13" d="M46.7,50.6L37,60.3l-9.7-9.6l-20,21C8,72.4,9.1,73,10.2,73h53.5c1.2,0,2.2-0.6,2.9-1.4L46.7,50.6z"/><path class="st12" d="M6.7,30.1c-0.1,0.4-0.2,0.8-0.2,1.3l0,37.8c0,0.9,0.3,1.7,0.8,2.3l20-21L6.7,30.1z"/><path class="st12" d="M67.5,69.3V31.4c0-0.5-0.1-0.9-0.3-1.3L46.7,50.6l20,21C67.2,70.9,67.5,70.1,67.5,69.3z"/></g></svg>